<?xml version="1.0" standalone="no"?><!DOCTYPE svg PUBLIC "-//W3C//DTD SVG 1.1//EN" "http://www.w3.org/Graphics/SVG/1.1/DTD/svg11.dtd"><svg width="100%" height="100%" viewBox="0 0 189 189" version="1.1" xmlns="http://www.w3.org/2000/svg" xmlns:xlink="http://www.w3.org/1999/xlink" xml:space="preserve" style="fill-rule:evenodd;clip-rule:evenodd;"><path d="M46.294,127.414c-0.158,0.308 8.081,10.865 15.15,15.652c6.224,4.215 17.15,8.979 17.699,7.809c0.961,-2.04 -8.391,-5.295 -16.361,-10.552c-8.172,-5.39 -14.767,-16.282 -16.488,-12.909" style="fill:#000;"/><path d="M166.84,33.03l-3.875,1.908c-0.002,-0.001 -13.773,-10.061 -13.773,-10.061l2.65,-3.832c3.019,5.203 8.856,4.474 8.856,4.474c0,0 0.817,6.874 6.142,7.511M159.449,35.766l-12.631,5.745l-13.162,-9.613l2.75,-1.251c0.085,-0.03 0.168,-0.068 0.248,-0.113l9.633,-4.382l13.162,9.614ZM130.606,107.897c-1.095,11.664 -17.21,11.953 -22.167,21.101c-6.226,11.49 0.436,25.784 -10.586,35.299c-17.434,15.046 -43.204,-8.293 -45.287,-9.222c0,0 -0.159,-0.108 -0.449,-0.316c-0.027,0.041 -0.055,0.081 -0.082,0.121c-1.54,-1.069 -2.421,-1.739 -2.421,-1.739c-1.514,-1.676 -31.871,-18.988 -22.155,-39.626c6.143,-13.048 22.095,-10.964 31.565,-20.104c7.54,-7.278 3.158,-22.412 14.284,-26.81c10.613,-4.196 22.626,0.182 27.512,8.383l1.066,0.68l-10.275,13.565c-3.761,-0.916 -7.849,-0.679 -11.681,0.945c-9.245,3.919 -13.486,14.41 -9.468,23.43c0.325,0.731 0.698,1.425 1.107,2.088l-11.027,14.559c-5.185,-3.816 -9.72,-7.25 -10.942,-8.449c-1.448,-1.419 -2.854,-2.989 -3.8,-4.782c-0.472,-0.892 -0.834,-2.06 -0.585,-3.062c0.287,-1.16 1.538,-1.793 2.672,-1.973c1.67,-0.266 3.607,1.019 3.377,2.842c-0.042,0.344 -0.257,0.8 -0.595,0.956c-0.514,0.238 -1.009,-0.028 -1.287,-0.47c-0.133,-0.212 -0.249,-0.501 -0.272,-0.75c-0.009,-0.1 0.099,-0.735 -0.08,-0.758c-0.456,-0.058 -1.133,0.108 -1.538,0.31c-0.967,0.483 -0.768,1.651 -0.485,2.49c0.432,1.279 1.935,1.664 3.455,1.409c1.518,-0.254 2.486,-2.083 2.488,-2.087c1.084,-1.992 -0.695,-4.949 -2.534,-5.888c-0.627,-0.321 -1.517,-0.556 -2.233,-0.488c-0.941,0.087 -1.975,0.532 -2.746,1.059c-5.209,3.561 -2.388,10.756 5.093,17.198c4.85,4.177 8.686,7.243 12.735,10.078c4.097,3.158 8.317,5.978 14.048,9.497c8.443,5.186 16.314,5.797 18.347,-0.082c0.3,-0.871 0.447,-1.964 0.267,-2.87c-0.136,-0.688 -0.618,-1.455 -1.11,-1.952c-1.442,-1.457 -4.851,-2.289 -6.504,-0.712c-0.005,0.003 -1.53,1.425 -1.351,2.917c0.178,1.495 0.98,2.793 2.36,2.838c0.905,0.029 2.11,-0.115 2.312,-1.156c0.084,-0.438 0.057,-1.117 -0.129,-1.527c-0.072,-0.162 -0.667,0.119 -0.769,0.138c-0.251,0.049 -0.568,0.022 -0.814,-0.044c-0.512,-0.135 -0.913,-0.522 -0.824,-1.07c0.058,-0.362 0.446,-0.691 0.771,-0.828c1.729,-0.73 3.537,0.722 3.748,2.36c0.143,1.114 -0.127,2.461 -1.187,3.058c-0.915,0.515 -2.165,0.506 -3.176,0.315c-2.029,-0.379 -3.969,-1.253 -5.774,-2.209c-1.55,-0.82 -6.346,-4.199 -11.673,-8.062l11.116,-14.677c3.726,0.88 7.766,0.628 11.553,-0.977c9.245,-3.919 13.485,-14.409 9.467,-23.43c-0.306,-0.689 -0.658,-1.345 -1.04,-1.976l10.396,-13.724l1.118,0.915c9.46,2.19 17.233,12.142 16.189,23.269M105.119,71.394c-0.281,-0.15 -0.609,-0.314 -0.936,-0.488c-0.11,-0.08 -0.216,-0.16 -0.325,-0.24l27.136,-35.365c0.315,0.229 0.628,0.459 0.942,0.687l-26.817,35.406ZM115.616,78.668c-0.362,-0.294 -0.729,-0.587 -1.095,-0.878l26.586,-35.102c0.378,0.276 0.755,0.552 1.133,0.828l-26.624,35.152ZM101.319,95.221l9.963,-13.156l1.089,0.889l-10.162,13.417c-0.282,-0.398 -0.58,-0.779 -0.89,-1.15M97.644,102.399c-0.038,-0.089 -0.073,-0.18 -0.113,-0.268c-0.175,-0.394 -0.373,-0.771 -0.587,-1.133l2.496,-3.295c0.295,0.392 0.573,0.801 0.832,1.227l-2.628,3.469ZM87.721,117.485c1.331,-0.06 2.674,-0.351 3.969,-0.898c5.152,-2.184 7.783,-7.675 6.419,-12.818l2.794,-3.689c0.084,0.171 0.168,0.341 0.246,0.516c3.349,7.517 -0.184,16.256 -7.887,19.522c-2.724,1.154 -5.604,1.467 -8.338,1.059l2.797,-3.692ZM82.168,120.508l2.494,-3.295c0.518,0.117 1.045,0.2 1.577,0.244l-2.628,3.469c-0.488,-0.117 -0.97,-0.256 -1.443,-0.418M69.703,136.965l10.587,-13.979c0.456,0.183 0.92,0.346 1.389,0.491l-10.841,14.315c-0.377,-0.275 -0.755,-0.55 -1.135,-0.827M73.054,117.759l-10.551,13.929c-0.333,-0.243 -0.665,-0.486 -0.995,-0.727l10.761,-14.207c0.249,0.346 0.513,0.678 0.785,1.005M76.816,110.749c0.019,0.046 0.037,0.093 0.057,0.138c0.168,0.377 0.357,0.739 0.561,1.087l-2.499,3.301c-0.259,-0.346 -0.504,-0.702 -0.734,-1.074l2.615,-3.452ZM86.842,95.527c-1.383,0.042 -2.78,0.333 -4.126,0.903c-5.202,2.204 -7.833,7.781 -6.379,12.966l-2.776,3.667c-0.107,-0.211 -0.21,-0.425 -0.307,-0.642c-3.347,-7.516 0.185,-16.256 7.889,-19.522c2.769,-1.175 5.701,-1.476 8.475,-1.038l-2.776,3.666ZM92.189,92.493l-2.5,3.301c-0.453,-0.101 -0.914,-0.174 -1.38,-0.219l2.613,-3.45c0.428,0.105 0.852,0.227 1.267,0.368M103.941,76.976l-9.872,13.035c-0.401,-0.159 -0.807,-0.303 -1.217,-0.434l10.047,-13.266l1.042,0.665ZM133.899,37.422l-26.701,35.254c-0.35,-0.219 -0.698,-0.439 -1.047,-0.659l26.751,-35.322c0.333,0.242 0.665,0.485 0.997,0.727M112.457,76.136l26.515,-35.008c0.245,0.179 0.488,0.357 0.732,0.536c0.145,0.106 0.29,0.211 0.435,0.317l-26.557,35.063c-0.377,-0.3 -0.752,-0.603 -1.125,-0.908M99.452,93.307l9.784,-12.916l1.119,0.915l-9.851,13.005c-0.337,-0.35 -0.689,-0.683 -1.052,-1.004M95.265,98.837l2.369,-3.127c0.356,0.328 0.699,0.674 1.024,1.039l-2.422,3.199c-0.301,-0.395 -0.625,-0.766 -0.971,-1.111M92.117,105.384c-0.068,-0.283 -0.158,-0.563 -0.281,-0.84c-0.107,-0.242 -0.238,-0.466 -0.378,-0.681l2.073,-2.737c0.331,0.371 0.628,0.779 0.892,1.216l-2.306,3.042ZM83.793,113.983l2.065,-2.724c0.544,0.146 1.114,0.201 1.687,0.163l-2.304,3.042c-0.497,-0.118 -0.981,-0.278 -1.448,-0.481M79.686,119.407l2.368,-3.127c0.443,0.223 0.904,0.414 1.374,0.578l-2.423,3.199c-0.45,-0.196 -0.892,-0.413 -1.319,-0.65M67.569,135.403l10.298,-13.596c0.422,0.245 0.854,0.474 1.295,0.684l-10.426,13.767c-0.389,-0.285 -0.779,-0.57 -1.167,-0.855M75.879,120.476c0.315,0.243 0.637,0.474 0.967,0.695l-10.242,13.522c-0.022,-0.015 -0.043,-0.031 -0.065,-0.047c0.003,-0.005 0.007,-0.009 0.01,-0.012c-0.298,-0.217 -0.598,-0.435 -0.898,-0.653l10.228,-13.505ZM74.955,119.711l-10.274,13.566l-1.21,-0.882l10.396,-13.725c0.348,0.364 0.712,0.711 1.088,1.041M79.143,114.183l-2.369,3.127c-0.371,-0.339 -0.725,-0.699 -1.062,-1.077l2.427,-3.204c0.309,0.41 0.644,0.795 1.004,1.154M82.272,107.572c0.069,0.304 0.166,0.604 0.297,0.9c0.108,0.244 0.239,0.469 0.38,0.686l-2.073,2.736c-0.344,-0.385 -0.651,-0.807 -0.922,-1.261l2.318,-3.061ZM90.615,99.035l-2.064,2.724c-0.565,-0.153 -1.158,-0.208 -1.754,-0.161l2.314,-3.056c0.518,0.118 1.02,0.283 1.504,0.493M94.723,93.612l-2.369,3.127c-0.459,-0.23 -0.937,-0.43 -1.425,-0.598l2.425,-3.201c0.467,0.202 0.923,0.426 1.369,0.672M106.22,78.432l-9.679,12.78c-0.437,-0.254 -0.886,-0.491 -1.342,-0.707l9.756,-12.881l1.265,0.808ZM136.075,39.013l-26.6,35.122c-0.416,-0.277 -0.837,-0.548 -1.26,-0.816l26.652,-35.189c0.403,0.294 0.805,0.588 1.208,0.883M110.642,74.929c-0.058,-0.041 -0.118,-0.079 -0.175,-0.12l26.576,-35.089c0.32,0.234 0.641,0.467 0.961,0.701l-26.468,34.946c-0.245,-0.208 -0.492,-0.413 -0.732,-0.626c-0.067,0.051 -0.096,0.138 -0.162,0.188M97.563,91.848l9.67,-12.769l0.146,0.094c0.048,-0.062 0.094,-0.123 0.141,-0.185l0.787,0.643l-9.778,12.911c-0.315,-0.243 -0.638,-0.473 -0.966,-0.694M93.403,97.339l2.347,-3.1c0.331,0.219 0.653,0.45 0.967,0.695l-2.349,3.1c-0.309,-0.249 -0.632,-0.482 -0.965,-0.695M89.699,102.229l1.998,-2.638c0.338,0.208 0.656,0.447 0.96,0.702l-1.99,2.629c-0.295,-0.271 -0.621,-0.5 -0.968,-0.693M86.2,104.256c0.193,-0.081 0.391,-0.135 0.588,-0.167l-2.079,2.744c-0.145,-1.06 0.435,-2.129 1.491,-2.577M81.749,112.726l1.991,-2.628c0.294,0.27 0.621,0.498 0.968,0.691l-1.998,2.638c-0.337,-0.208 -0.655,-0.446 -0.961,-0.701M77.691,118.086l2.347,-3.101c0.311,0.249 0.632,0.481 0.966,0.694l-2.348,3.101c-0.33,-0.219 -0.653,-0.45 -0.965,-0.694M86.236,108.773c-0.371,-0.151 -0.704,-0.386 -0.967,-0.694l2.904,-3.834c0.369,0.15 0.702,0.387 0.965,0.696l-2.902,3.832ZM88.204,108.76c-0.19,0.083 -0.385,0.135 -0.582,0.166l2.073,-2.737c0.144,1.059 -0.435,2.125 -1.491,2.571M78.824,106.112c0.153,-3.014 2.004,-5.833 5.034,-7.117c0.164,-0.069 0.329,-0.123 0.495,-0.181l-5.529,7.298ZM78.944,107.94l7.24,-9.559c0.528,-0.064 1.054,-0.076 1.577,-0.041l-2.873,3.794c-1.439,0.722 -2.388,2.041 -2.657,3.507l-2.864,3.782c-0.191,-0.49 -0.333,-0.985 -0.423,-1.483M95.571,107.118c-0.226,2.933 -2.065,5.65 -5.023,6.903c-0.094,0.039 -0.188,0.068 -0.282,0.104l5.305,-7.007ZM95.488,105.245l-7.092,9.364c-0.606,0.085 -1.212,0.109 -1.811,0.066l2.837,-3.746c1.524,-0.727 2.516,-2.114 2.766,-3.653l2.829,-3.734c0.223,0.56 0.38,1.129 0.471,1.703M117.27,80.221c-0.266,-0.249 -0.524,-0.505 -0.764,-0.742l26.701,-35.256c0.362,0.263 0.719,0.525 1.079,0.787l-27.016,35.211ZM164.608,20.859c-1.236,0.195 -2.396,0.46 -3.662,0.42c-4.438,-0.143 -7.518,-3.071 -8.541,-7.193c-1.47,1.526 -2.235,2.462 -3.431,4.2c-1.134,1.647 -1.705,2.631 -2.566,4.427l-2.256,1.329l-0.989,-1.409c-0.455,-0.647 -1.361,-0.813 -2.025,-0.369c-0.663,0.443 -0.833,1.328 -0.378,1.975l0.733,1.046l-1.216,0.592l-1.021,-1.455c-0.454,-0.647 -1.36,-0.813 -2.023,-0.37c-0.664,0.444 -0.834,1.328 -0.379,1.976l0.792,1.128l-1.094,0.533l-0.992,-1.414c-0.454,-0.648 -1.361,-0.813 -2.025,-0.37c-0.664,0.444 -0.834,1.329 -0.379,1.976l0.764,1.087l-1.922,0.934l-0.014,-0.02l-0.176,0.113l-0.027,0.036l-3.859,2.815l-0.012,0.037l-26.714,34.818c-6.314,-7.921 -18.752,-11.949 -29.719,-7.79c-12.467,4.728 -7.242,21.754 -15.612,29.77c-10.511,10.068 -28.542,7.451 -35.227,21.953c-1.82,3.951 -2.524,8.9 -1.657,13.142c0.872,4.273 3.059,8.26 5.565,11.823c2.47,3.513 5.419,6.656 8.633,9.53c2.629,2.351 5.389,4.576 8.236,6.669c4.424,3.253 8.962,6.363 13.453,9.523c0.933,0.656 1.857,1.327 2.799,1.97c5.439,3.704 11.218,7.018 17.506,9.128c5.502,1.843 11.578,2.882 17.317,1.472c3.29,-0.808 6.621,-2.593 9.182,-4.768c12.294,-10.443 4.506,-26.525 11.34,-39.255c5.441,-10.138 23.657,-10.186 24.686,-23.197c0.946,-11.952 -7.329,-22.82 -17.526,-25.94l26.835,-34.973l-0.019,-0.014c0.229,-0.107 0.399,-0.423 0.539,-0.631l2.321,-1.682l-0.038,-0.071l1.25,-0.635l0.981,1.266c0.486,0.626 1.4,0.75 2.04,0.276c0.642,-0.473 0.769,-1.364 0.284,-1.99l-0.685,-0.884l0.113,-0.058l1.09,-0.554l0.93,1.201c0.485,0.625 1.398,0.749 2.04,0.276c0.641,-0.474 0.768,-1.365 0.282,-1.991l-0.632,-0.817l0.894,-0.454l0.971,1.254c0.486,0.626 1.399,0.749 2.04,0.276c0.641,-0.474 0.769,-1.365 0.284,-1.991l-0.675,-0.871l0.612,-0.31l1.899,-1.147c2.713,0.284 8.292,-3.107 9.711,-6.076c-0.091,0.19 -2.067,-0.031 -2.323,-0.061c-0.673,-0.079 -1.332,-0.234 -1.955,-0.497c-4.044,-1.703 -4.349,-6.016 -4.353,-9.714" style="fill:#000;fill-rule:nonzero;"/><path d="M183.397,183.398l-178.4,0l0,-178.401l178.4,0l0,178.401ZM8.197,8.197l0,172.001l172,0l0,-172.001l-172,0Z" style="fill:#000;"/><rect x="9.797" y="10.197" width="168.4" height="168.4" style="fill:none;stroke-width:1.2px;stroke:#000;"/></svg>